<svg width="69" height="69" viewBox="0 0 69 69" fill="none" xmlns="http://www.w3.org/2000/svg">
<g id="Search" clip-path="url(#clip0_99_13)">
<path id="Vector" d="M44.5625 40.25H42.2913L41.4863 39.4737C44.3038 36.1962 46 31.9413 46 27.3125C46 16.9913 37.6337 8.625 27.3125 8.625C16.9913 8.625 8.625 16.9913 8.625 27.3125C8.625 37.6337 16.9913 46 27.3125 46C31.9413 46 36.1962 44.3038 39.4737 41.4863L40.25 42.2913V44.5625L54.625 58.9087L58.9087 54.625L44.5625 40.25ZM27.3125 40.25C20.1537 40.25 14.375 34.4713 14.375 27.3125C14.375 20.1537 20.1537 14.375 27.3125 14.375C34.4713 14.375 40.25 20.1537 40.25 27.3125C40.25 34.4713 34.4713 40.25 27.3125 40.25Z" fill="#0391CB"/>
</g>
<defs>
<clipPath id="clip0_99_13">
<rect width="69" height="69" fill="white"/>
</clipPath>
</defs>
</svg>
